ffmpeg started on 2026-01-19 at 14:55:40
Report written to "D:\Convert\FFMetrics\reports\ssim_report-6.txt"
Log level: 32
Command line:
ffmpeg -hide_banner -nostdin -r 24000/1001 -i "F:\\Convert\\files\\[DC] Make Heroine ga Oosugiru - 07_Telegram_HEVC(185).mkv" -r 24000/1001 -i "F:\\Convert\\files\\[DC] Make Heroine ga Oosugiru - 07_Telegram.mp4" -lavfi "[0:v]settb=AVTB,setpts=PTS-STARTPTS,format=pix_fmts=yuv420p10le,fps=24000/1001,scale=1920:1080:flags=lanczos:param0=3:out_range=limited:out_color_matrix=bt709:out_chroma_loc=left,setsar=1/1,setdar=(1920/1080)*(1/1),colorspace=format=yuv420p10:range=tv:primaries=bt709:trc=bt709:space=bt709:fast=0[main];[1:v]settb=AVTB,setpts=PTS-STARTPTS,format=pix_fmts=yuv420p,fps=24000/1001,scale=1920:1080:flags=lanczos:param0=3:out_range=limited:out_color_matrix=bt709:out_chroma_loc=left,setsar=1.000,setdar=1.778,colorspace=format=yuv420p:range=tv:primaries=bt709:trc=bt709:space=bt709:fast=0[ref];[main][ref]ssim=eof_action=endall:stats_file='D\\:/Convert/FFMetrics/logs/ssim_logfile-6.txt'" -f null -
Input #0, matroska,webm, from 'F:\Convert\files\[DC] Make Heroine ga Oosugiru - 07_Telegram_HEVC(185).mkv':
  Metadata:
    COMPATIBLE_BRANDS: isomiso2avc1mp41
    MAJOR_BRAND     : isom
    MINOR_VERSION   : 512
    ENCODER         : Lavf61.7.100
  Duration: 00:24:06.79, start: -0.021000, bitrate: 1039 kb/s
  Stream #0:0: Video: hevc (Main 10), yuv420p10le(tv, bt709, progressive), 1920x1080 [SAR 1:1 DAR 16:9], 23.98 fps, 23.98 tbr, 1k tbn (default)
      Metadata:
        HANDLER_NAME    : VideoHandler
        VENDOR_ID       : [0][0][0][0]
        ENCODER         : Lavc61.19.100 libx265
        BPS             : 842714
        DURATION        : 00:24:06.569708333
        NUMBER_OF_FRAMES: 34683
        NUMBER_OF_BYTES : 152380641
        _STATISTICS_WRITING_APP: mkvpropedit v94.0 ('Initiate') 64-bit
        _STATISTICS_WRITING_DATE_UTC: 2026-01-19 10:29:59
        _STATISTICS_TAGS: BPS DURATION NUMBER_OF_FRAMES NUMBER_OF_BYTES
  Stream #0:1: Audio: aac (LC), 48000 Hz, stereo, fltp (default)
      Metadata:
        HANDLER_NAME    : SoundHandler
        VENDOR_ID       : [0][0][0][0]
        ENCODER         : Lavc61.19.100 aac
        BPS             : 193194
        DURATION        : 00:24:06.784000000
        NUMBER_OF_FRAMES: 67819
        NUMBER_OF_BYTES : 34938755
        _STATISTICS_WRITING_APP: mkvpropedit v94.0 ('Initiate') 64-bit
        _STATISTICS_WRITING_DATE_UTC: 2026-01-19 10:29:59
        _STATISTICS_TAGS: BPS DURATION NUMBER_OF_FRAMES NUMBER_OF_BYTES
Input #1, mov,mp4,m4a,3gp,3g2,mj2, from 'F:\Convert\files\[DC] Make Heroine ga Oosugiru - 07_Telegram.mp4':
  Metadata:
    major_brand     : isom
    minor_version   : 512
    compatible_brands: isomiso2avc1mp41
    encoder         : Lavf60.16.100
  Duration: 00:24:06.74, start: 0.000000, bitrate: 3764 kb/s
  Stream #1:0[0x1](und): Video: h264 (High) (avc1 / 0x31637661), yuv420p(tv, bt709, progressive), 1920x1080 [SAR 1:1 DAR 16:9], 3616 kb/s, 23.98 fps, 23.98 tbr, 24k tbn (default)
      Metadata:
        handler_name    : VideoHandler
        vendor_id       : [0][0][0][0]
        encoder         : Lavc60.31.102 h264_qsv
  Stream #1:1[0x2](und): Audio: aac (HE-AACv2) (mp4a / 0x6134706D), 48000 Hz, stereo, fltp, 144 kb/s (default)
      Metadata:
        handler_name    : SoundHandler
        vendor_id       : [0][0][0][0]
Stream mapping:
  Stream #0:0 (hevc) -> settb:default
  Stream #1:0 (h264) -> settb:default
  ssim:default -> Stream #0:0 (wrapped_avframe)
  Stream #0:1 -> #0:1 (aac (native) -> pcm_s16le (native))
Output #0, null, to 'pipe:':
  Metadata:
    COMPATIBLE_BRANDS: isomiso2avc1mp41
    MAJOR_BRAND     : isom
    MINOR_VERSION   : 512
    encoder         : Lavf61.7.100
  Stream #0:0: Video: wrapped_avframe, yuv420p10le(tv, bt709, progressive), 1920x1080 [SAR 1:1 DAR 16:9], q=2-31, 200 kb/s, 23.98 fps, 23.98 tbn
      Metadata:
        encoder         : Lavc61.19.100 wrapped_avframe
  Stream #0:1: Audio: pcm_s16le, 48000 Hz, stereo, s16, 1536 kb/s (default)
      Metadata:
        HANDLER_NAME    : SoundHandler
        VENDOR_ID       : [0][0][0][0]
        _STATISTICS_TAGS: BPS DURATION NUMBER_OF_FRAMES NUMBER_OF_BYTES
        BPS             : 193194
        DURATION        : 00:24:06.784000000
        NUMBER_OF_FRAMES: 67819
        NUMBER_OF_BYTES : 34938755
        _STATISTICS_WRITING_APP: mkvpropedit v94.0 ('Initiate') 64-bit
        _STATISTICS_WRITING_DATE_UTC: 2026-01-19 10:29:59
        encoder         : Lavc61.19.100 pcm_s16le
frame=  113 fps=0.0 q=-0.0 size=N/A time=00:00:04.71 bitrate=N/A speed=9.29x    frame=  281 fps=276 q=-0.0 size=N/A time=00:00:11.72 bitrate=N/A speed=11.5x    frame=  459 fps=297 q=-0.0 size=N/A time=00:00:19.14 bitrate=N/A speed=12.4x    frame=  635 fps=308 q=-0.0 size=N/A time=00:00:26.48 bitrate=N/A speed=12.9x    frame=  815 fps=317 q=-0.0 size=N/A time=00:00:33.99 bitrate=N/A speed=13.2x    frame=  960 fps=312 q=-0.0 size=N/A time=00:00:40.04 bitrate=N/A speed=  13x    frame= 1116 fps=309 q=-0.0 size=N/A time=00:00:46.54 bitrate=N/A speed=12.9x    frame= 1278 fps=310 q=-0.0 size=N/A time=00:00:53.30 bitrate=N/A speed=12.9x    frame= 1437 fps=310 q=-0.0 size=N/A time=00:00:59.93 bitrate=N/A speed=12.9x    frame= 1576 fps=306 q=-0.0 size=N/A time=00:01:05.73 bitrate=N/A speed=12.8x    frame= 1727 fps=305 q=-0.0 size=N/A time=00:01:12.03 bitrate=N/A speed=12.7x    frame= 1887 fps=305 q=-0.0 size=N/A time=00:01:18.70 bitrate=N/A speed=12.7x    frame= 2040 fps=305 q=-0.0 size=N/A time=00:01:25.08 bitrate=N/A speed=12.7x    frame= 2142 fps=297 q=-0.0 size=N/A time=00:01:29.33 bitrate=N/A speed=12.4x    frame= 2287 fps=296 q=-0.0 size=N/A time=00:01:35.38 bitrate=N/A speed=12.3x    frame= 2427 fps=294 q=-0.0 size=N/A time=00:01:41.22 bitrate=N/A speed=12.3x    frame= 2547 fps=291 q=-0.0 size=N/A time=00:01:46.23 bitrate=N/A speed=12.1x    frame= 2698 fps=291 q=-0.0 size=N/A time=00:01:52.52 bitrate=N/A speed=12.1x    frame= 2859 fps=292 q=-0.0 size=N/A time=00:01:59.24 bitrate=N/A speed=12.2x    frame= 3027 fps=294 q=-0.0 size=N/A time=00:02:06.25 bitrate=N/A speed=12.2x    frame= 3206 fps=296 q=-0.0 size=N/A time=00:02:13.71 bitrate=N/A speed=12.4x    frame= 3393 fps=299 q=-0.0 size=N/A time=00:02:21.51 bitrate=N/A speed=12.5x    frame= 3573 fps=301 q=-0.0 size=N/A time=00:02:29.02 bitrate=N/A speed=12.6x    frame= 3758 fps=304 q=-0.0 size=N/A time=00:02:36.73 bitrate=N/A speed=12.7x    frame= 3947 fps=306 q=-0.0 size=N/A time=00:02:44.62 bitrate=N/A speed=12.8x    frame= 4127 fps=308 q=-0.0 size=N/A time=00:02:52.13 bitrate=N/A speed=12.8x    frame= 4311 fps=310 q=-0.0 size=N/A time=00:02:59.80 bitrate=N/A speed=12.9x    frame= 4498 fps=312 q=-0.0 size=N/A time=00:03:07.60 bitrate=N/A speed=  13x    frame= 4676 fps=313 q=-0.0 size=N/A time=00:03:15.02 bitrate=N/A speed=  13x    frame= 4861 fps=314 q=-0.0 size=N/A time=00:03:22.74 bitrate=N/A speed=13.1x    frame= 5044 fps=316 q=-0.0 size=N/A time=00:03:30.37 bitrate=N/A speed=13.2x    frame= 5204 fps=315 q=-0.0 size=N/A time=00:03:37.05 bitrate=N/A speed=13.2x    frame= 5380 fps=316 q=-0.0 size=N/A time=00:03:44.39 bitrate=N/A speed=13.2x    frame= 5548 fps=317 q=-0.0 size=N/A time=00:03:51.39 bitrate=N/A speed=13.2x    frame= 5736 fps=318 q=-0.0 size=N/A time=00:03:59.23 bitrate=N/A speed=13.3x    frame= 5920 fps=319 q=-0.0 size=N/A time=00:04:06.91 bitrate=N/A speed=13.3x    frame= 6098 fps=320 q=-0.0 size=N/A time=00:04:14.33 bitrate=N/A speed=13.3x    frame= 6286 fps=321 q=-0.0 size=N/A time=00:04:22.17 bitrate=N/A speed=13.4x    frame= 6466 fps=322 q=-0.0 size=N/A time=00:04:29.68 bitrate=N/A speed=13.4x    frame= 6655 fps=323 q=-0.0 size=N/A time=00:04:37.56 bitrate=N/A speed=13.5x    frame= 6843 fps=324 q=-0.0 size=N/A time=00:04:45.41 bitrate=N/A speed=13.5x    frame= 7021 fps=324 q=-0.0 size=N/A time=00:04:52.83 bitrate=N/A speed=13.5x    frame= 7199 fps=325 q=-0.0 size=N/A time=00:05:00.25 bitrate=N/A speed=13.6x    frame= 7384 fps=325 q=-0.0 size=N/A time=00:05:07.97 bitrate=N/A speed=13.6x    frame= 7560 fps=326 q=-0.0 size=N/A time=00:05:15.31 bitrate=N/A speed=13.6x    frame= 7734 fps=326 q=-0.0 size=N/A time=00:05:22.57 bitrate=N/A speed=13.6x    frame= 7923 fps=327 q=-0.0 size=N/A time=00:05:30.45 bitrate=N/A speed=13.6x    frame= 8098 fps=327 q=-0.0 size=N/A time=00:05:37.75 bitrate=N/A speed=13.7x    frame= 8278 fps=328 q=-0.0 size=N/A time=00:05:45.26 bitrate=N/A speed=13.7x    frame= 8461 fps=328 q=-0.0 size=N/A time=00:05:52.89 bitrate=N/A speed=13.7x    frame= 8639 fps=329 q=-0.0 size=N/A time=00:06:00.31 bitrate=N/A speed=13.7x    frame= 8813 fps=329 q=-0.0 size=N/A time=00:06:07.57 bitrate=N/A speed=13.7x    frame= 9001 fps=329 q=-0.0 size=N/A time=00:06:15.41 bitrate=N/A speed=13.7x    frame= 9172 fps=330 q=-0.0 size=N/A time=00:06:22.54 bitrate=N/A speed=13.7x    frame= 9360 fps=330 q=-0.0 size=N/A time=00:06:30.39 bitrate=N/A speed=13.8x    frame= 9537 fps=330 q=-0.0 size=N/A time=00:06:37.77 bitrate=N/A speed=13.8x    frame= 9716 fps=331 q=-0.0 size=N/A time=00:06:45.23 bitrate=N/A speed=13.8x    frame= 9895 fps=331 q=-0.0 size=N/A time=00:06:52.70 bitrate=N/A speed=13.8x    frame=10077 fps=331 q=-0.0 size=N/A time=00:07:00.29 bitrate=N/A speed=13.8x    frame=10252 fps=331 q=-0.0 size=N/A time=00:07:07.59 bitrate=N/A speed=13.8x    frame=10431 fps=332 q=-0.0 size=N/A time=00:07:15.05 bitrate=N/A speed=13.8x    frame=10608 fps=332 q=-0.0 size=N/A time=00:07:22.44 bitrate=N/A speed=13.8x    frame=10780 fps=332 q=-0.0 size=N/A time=00:07:29.61 bitrate=N/A speed=13.8x    frame=10962 fps=332 q=-0.0 size=N/A time=00:07:37.20 bitrate=N/A speed=13.9x    frame=11139 fps=332 q=-0.0 size=N/A time=00:07:44.58 bitrate=N/A speed=13.9x    frame=11314 fps=333 q=-0.0 size=N/A time=00:07:51.88 bitrate=N/A speed=13.9x    frame=11495 fps=333 q=-0.0 size=N/A time=00:07:59.43 bitrate=N/A speed=13.9x    frame=11676 fps=333 q=-0.0 size=N/A time=00:08:06.98 bitrate=N/A speed=13.9x    frame=11860 fps=333 q=-0.0 size=N/A time=00:08:14.66 bitrate=N/A speed=13.9x    frame=12044 fps=334 q=-0.0 size=N/A time=00:08:22.33 bitrate=N/A speed=13.9x    frame=12221 fps=334 q=-0.0 size=N/A time=00:08:29.71 bitrate=N/A speed=13.9x    frame=12404 fps=334 q=-0.0 size=N/A time=00:08:37.35 bitrate=N/A speed=13.9x    frame=12587 fps=335 q=-0.0 size=N/A time=00:08:44.98 bitrate=N/A speed=  14x    frame=12775 fps=335 q=-0.0 size=N/A time=00:08:52.82 bitrate=N/A speed=  14x    frame=12953 fps=335 q=-0.0 size=N/A time=00:09:00.24 bitrate=N/A speed=  14x    frame=13132 fps=335 q=-0.0 size=N/A time=00:09:07.71 bitrate=N/A speed=  14x    frame=13307 fps=335 q=-0.0 size=N/A time=00:09:15.01 bitrate=N/A speed=  14x    frame=13488 fps=335 q=-0.0 size=N/A time=00:09:22.56 bitrate=N/A speed=  14x    frame=13674 fps=336 q=-0.0 size=N/A time=00:09:30.31 bitrate=N/A speed=  14x    frame=13862 fps=336 q=-0.0 size=N/A time=00:09:38.16 bitrate=N/A speed=  14x    frame=14043 fps=336 q=-0.0 size=N/A time=00:09:45.71 bitrate=N/A speed=  14x    frame=14206 fps=336 q=-0.0 size=N/A time=00:09:52.50 bitrate=N/A speed=  14x    frame=14396 fps=336 q=-0.0 size=N/A time=00:10:00.43 bitrate=N/A speed=  14x    frame=14571 fps=336 q=-0.0 size=N/A time=00:10:07.73 bitrate=N/A speed=  14x    frame=14745 fps=337 q=-0.0 size=N/A time=00:10:14.98 bitrate=N/A speed=  14x    frame=14932 fps=337 q=-0.0 size=N/A time=00:10:22.78 bitrate=N/A speed=  14x    frame=15098 fps=337 q=-0.0 size=N/A time=00:10:29.71 bitrate=N/A speed=  14x    frame=15263 fps=336 q=-0.0 size=N/A time=00:10:36.59 bitrate=N/A speed=  14x    frame=15445 fps=337 q=-0.0 size=N/A time=00:10:44.18 bitrate=N/A speed=  14x    frame=15630 fps=337 q=-0.0 size=N/A time=00:10:51.90 bitrate=N/A speed=14.1x    frame=15816 fps=337 q=-0.0 size=N/A time=00:10:59.65 bitrate=N/A speed=14.1x    frame=16001 fps=337 q=-0.0 size=N/A time=00:11:07.37 bitrate=N/A speed=14.1x    frame=16183 fps=338 q=-0.0 size=N/A time=00:11:14.96 bitrate=N/A speed=14.1x    frame=16367 fps=338 q=-0.0 size=N/A time=00:11:22.64 bitrate=N/A speed=14.1x    frame=16549 fps=338 q=-0.0 size=N/A time=00:11:30.23 bitrate=N/A speed=14.1x    frame=16735 fps=338 q=-0.0 size=N/A time=00:11:37.98 bitrate=N/A speed=14.1x    frame=16924 fps=338 q=-0.0 size=N/A time=00:11:45.87 bitrate=N/A speed=14.1x    frame=17105 fps=339 q=-0.0 size=N/A time=00:11:53.42 bitrate=N/A speed=14.1x    frame=17288 fps=339 q=-0.0 size=N/A time=00:12:01.05 bitrate=N/A speed=14.1x    frame=17473 fps=339 q=-0.0 size=N/A time=00:12:08.76 bitrate=N/A speed=14.1x    frame=17647 fps=339 q=-0.0 size=N/A time=00:12:16.02 bitrate=N/A speed=14.1x    frame=17827 fps=339 q=-0.0 size=N/A time=00:12:23.53 bitrate=N/A speed=14.1x    frame=18014 fps=339 q=-0.0 size=N/A time=00:12:31.33 bitrate=N/A speed=14.1x    frame=18188 fps=339 q=-0.0 size=N/A time=00:12:38.59 bitrate=N/A speed=14.1x    frame=18362 fps=339 q=-0.0 size=N/A time=00:12:45.84 bitrate=N/A speed=14.1x    frame=18553 fps=339 q=-0.0 size=N/A time=00:12:53.81 bitrate=N/A speed=14.2x    frame=18735 fps=340 q=-0.0 size=N/A time=00:13:01.40 bitrate=N/A speed=14.2x    frame=18918 fps=340 q=-0.0 size=N/A time=00:13:09.03 bitrate=N/A speed=14.2x    frame=19105 fps=340 q=-0.0 size=N/A time=00:13:16.83 bitrate=N/A speed=14.2x    frame=19291 fps=340 q=-0.0 size=N/A time=00:13:24.59 bitrate=N/A speed=14.2x    frame=19472 fps=340 q=-0.0 size=N/A time=00:13:32.14 bitrate=N/A speed=14.2x    frame=19659 fps=341 q=-0.0 size=N/A time=00:13:39.94 bitrate=N/A speed=14.2x    frame=19845 fps=341 q=-0.0 size=N/A time=00:13:47.70 bitrate=N/A speed=14.2x    frame=20028 fps=341 q=-0.0 size=N/A time=00:13:55.33 bitrate=N/A speed=14.2x    frame=20215 fps=341 q=-0.0 size=N/A time=00:14:03.13 bitrate=N/A speed=14.2x    frame=20393 fps=341 q=-0.0 size=N/A time=00:14:10.55 bitrate=N/A speed=14.2x    frame=20571 fps=341 q=-0.0 size=N/A time=00:14:17.98 bitrate=N/A speed=14.2x    frame=20752 fps=341 q=-0.0 size=N/A time=00:14:25.53 bitrate=N/A speed=14.2x    frame=20937 fps=341 q=-0.0 size=N/A time=00:14:33.24 bitrate=N/A speed=14.2x    frame=21117 fps=341 q=-0.0 size=N/A time=00:14:40.75 bitrate=N/A speed=14.2x    frame=21306 fps=342 q=-0.0 size=N/A time=00:14:48.63 bitrate=N/A speed=14.2x    frame=21487 fps=342 q=-0.0 size=N/A time=00:14:56.18 bitrate=N/A speed=14.2x    frame=21670 fps=342 q=-0.0 size=N/A time=00:15:03.81 bitrate=N/A speed=14.3x    frame=21859 fps=342 q=-0.0 size=N/A time=00:15:11.70 bitrate=N/A speed=14.3x    frame=22044 fps=342 q=-0.0 size=N/A time=00:15:19.41 bitrate=N/A speed=14.3x    frame=22222 fps=342 q=-0.0 size=N/A time=00:15:26.84 bitrate=N/A speed=14.3x    frame=22412 fps=342 q=-0.0 size=N/A time=00:15:34.76 bitrate=N/A speed=14.3x    frame=22595 fps=342 q=-0.0 size=N/A time=00:15:42.39 bitrate=N/A speed=14.3x    frame=22774 fps=342 q=-0.0 size=N/A time=00:15:49.86 bitrate=N/A speed=14.3x    frame=22959 fps=343 q=-0.0 size=N/A time=00:15:57.58 bitrate=N/A speed=14.3x    frame=23143 fps=343 q=-0.0 size=N/A time=00:16:05.25 bitrate=N/A speed=14.3x    frame=23324 fps=343 q=-0.0 size=N/A time=00:16:12.80 bitrate=N/A speed=14.3x    frame=23511 fps=343 q=-0.0 size=N/A time=00:16:20.60 bitrate=N/A speed=14.3x    frame=23699 fps=343 q=-0.0 size=N/A time=00:16:28.44 bitrate=N/A speed=14.3x    frame=23883 fps=343 q=-0.0 size=N/A time=00:16:36.12 bitrate=N/A speed=14.3x    frame=24069 fps=343 q=-0.0 size=N/A time=00:16:43.87 bitrate=N/A speed=14.3x    frame=24252 fps=343 q=-0.0 size=N/A time=00:16:51.51 bitrate=N/A speed=14.3x    frame=24436 fps=343 q=-0.0 size=N/A time=00:16:59.18 bitrate=N/A speed=14.3x    frame=24621 fps=344 q=-0.0 size=N/A time=00:17:06.90 bitrate=N/A speed=14.3x    frame=24803 fps=344 q=-0.0 size=N/A time=00:17:14.49 bitrate=N/A speed=14.3x    frame=24989 fps=344 q=-0.0 size=N/A time=00:17:22.24 bitrate=N/A speed=14.3x    frame=25176 fps=344 q=-0.0 size=N/A time=00:17:30.04 bitrate=N/A speed=14.3x    frame=25359 fps=344 q=-0.0 size=N/A time=00:17:37.68 bitrate=N/A speed=14.3x    frame=25541 fps=344 q=-0.0 size=N/A time=00:17:45.27 bitrate=N/A speed=14.3x    frame=25733 fps=344 q=-0.0 size=N/A time=00:17:53.28 bitrate=N/A speed=14.4x    frame=25913 fps=344 q=-0.0 size=N/A time=00:18:00.78 bitrate=N/A speed=14.4x    frame=26098 fps=344 q=-0.0 size=N/A time=00:18:08.50 bitrate=N/A speed=14.4x    frame=26285 fps=344 q=-0.0 size=N/A time=00:18:16.30 bitrate=N/A speed=14.4x    frame=26470 fps=345 q=-0.0 size=N/A time=00:18:24.01 bitrate=N/A speed=14.4x    frame=26657 fps=345 q=-0.0 size=N/A time=00:18:31.81 bitrate=N/A speed=14.4x    frame=26839 fps=345 q=-0.0 size=N/A time=00:18:39.40 bitrate=N/A speed=14.4x    frame=27012 fps=345 q=-0.0 size=N/A time=00:18:46.62 bitrate=N/A speed=14.4x    frame=27193 fps=345 q=-0.0 size=N/A time=00:18:54.17 bitrate=N/A speed=14.4x    frame=27370 fps=345 q=-0.0 size=N/A time=00:19:01.55 bitrate=N/A speed=14.4x    frame=27537 fps=345 q=-0.0 size=N/A time=00:19:08.52 bitrate=N/A speed=14.4x    frame=27718 fps=345 q=-0.0 size=N/A time=00:19:16.07 bitrate=N/A speed=14.4x    frame=27903 fps=345 q=-0.0 size=N/A time=00:19:23.78 bitrate=N/A speed=14.4x    frame=28083 fps=345 q=-0.0 size=N/A time=00:19:31.29 bitrate=N/A speed=14.4x    frame=28270 fps=345 q=-0.0 size=N/A time=00:19:39.09 bitrate=N/A speed=14.4x    frame=28459 fps=345 q=-0.0 size=N/A time=00:19:46.97 bitrate=N/A speed=14.4x    frame=28639 fps=345 q=-0.0 size=N/A time=00:19:54.48 bitrate=N/A speed=14.4x    frame=28810 fps=345 q=-0.0 size=N/A time=00:20:01.61 bitrate=N/A speed=14.4x    frame=28984 fps=345 q=-0.0 size=N/A time=00:20:08.87 bitrate=N/A speed=14.4x    frame=29157 fps=345 q=-0.0 size=N/A time=00:20:16.08 bitrate=N/A speed=14.4x    frame=29333 fps=345 q=-0.0 size=N/A time=00:20:23.43 bitrate=N/A speed=14.4x    frame=29505 fps=345 q=-0.0 size=N/A time=00:20:30.60 bitrate=N/A speed=14.4x    frame=29680 fps=345 q=-0.0 size=N/A time=00:20:37.90 bitrate=N/A speed=14.4x    frame=29854 fps=345 q=-0.0 size=N/A time=00:20:45.16 bitrate=N/A speed=14.4x    frame=30020 fps=344 q=-0.0 size=N/A time=00:20:52.08 bitrate=N/A speed=14.4x    frame=30194 fps=344 q=-0.0 size=N/A time=00:20:59.34 bitrate=N/A speed=14.4x    frame=30371 fps=344 q=-0.0 size=N/A time=00:21:06.72 bitrate=N/A speed=14.4x    frame=30561 fps=345 q=-0.0 size=N/A time=00:21:14.64 bitrate=N/A speed=14.4x    frame=30738 fps=345 q=-0.0 size=N/A time=00:21:22.03 bitrate=N/A speed=14.4x    frame=30923 fps=345 q=-0.0 size=N/A time=00:21:29.74 bitrate=N/A speed=14.4x    frame=31104 fps=345 q=-0.0 size=N/A time=00:21:37.29 bitrate=N/A speed=14.4x    frame=31289 fps=345 q=-0.0 size=N/A time=00:21:45.01 bitrate=N/A speed=14.4x    frame=31463 fps=345 q=-0.0 size=N/A time=00:21:52.26 bitrate=N/A speed=14.4x    frame=31645 fps=345 q=-0.0 size=N/A time=00:21:59.86 bitrate=N/A speed=14.4x    frame=31828 fps=345 q=-0.0 size=N/A time=00:22:07.49 bitrate=N/A speed=14.4x    frame=31990 fps=345 q=-0.0 size=N/A time=00:22:14.24 bitrate=N/A speed=14.4x    frame=32177 fps=345 q=-0.0 size=N/A time=00:22:22.04 bitrate=N/A speed=14.4x    frame=32362 fps=345 q=-0.0 size=N/A time=00:22:29.76 bitrate=N/A speed=14.4x    frame=32540 fps=345 q=-0.0 size=N/A time=00:22:37.18 bitrate=N/A speed=14.4x    frame=32695 fps=345 q=-0.0 size=N/A time=00:22:43.65 bitrate=N/A speed=14.4x    frame=32845 fps=344 q=-0.0 size=N/A time=00:22:49.91 bitrate=N/A speed=14.4x    frame=33020 fps=344 q=-0.0 size=N/A time=00:22:57.20 bitrate=N/A speed=14.4x    frame=33194 fps=344 q=-0.0 size=N/A time=00:23:04.46 bitrate=N/A speed=14.4x    frame=33358 fps=344 q=-0.0 size=N/A time=00:23:11.30 bitrate=N/A speed=14.4x    frame=33518 fps=344 q=-0.0 size=N/A time=00:23:17.97 bitrate=N/A speed=14.3x    frame=33668 fps=344 q=-0.0 size=N/A time=00:23:24.23 bitrate=N/A speed=14.3x    frame=33800 fps=343 q=-0.0 size=N/A time=00:23:29.74 bitrate=N/A speed=14.3x    frame=33937 fps=343 q=-0.0 size=N/A time=00:23:35.45 bitrate=N/A speed=14.3x    frame=34097 fps=343 q=-0.0 size=N/A time=00:23:42.12 bitrate=N/A speed=14.3x    frame=34254 fps=342 q=-0.0 size=N/A time=00:23:48.67 bitrate=N/A speed=14.3x    frame=34386 fps=342 q=-0.0 size=N/A time=00:23:54.18 bitrate=N/A speed=14.3x    frame=34532 fps=342 q=-0.0 size=N/A time=00:24:00.27 bitrate=N/A speed=14.2x    [Parsed_ssim_16 @ 0000029f57478c40] SSIM Y:0.993677 (21.990630) U:0.993770 (22.055101) V:0.993341 (21.765870) All:0.993636 (21.962938)
[out#0/null @ 0000029f4f87fd00] video:14903KiB audio:271276KiB subtitle:0KiB other streams:0KiB global headers:0KiB muxing overhead: unknown
frame=34683 fps=342 q=-0.0 Lsize=N/A time=00:24:06.57 bitrate=N/A speed=14.3x    
